<?xml version="1.0" encoding="UTF-8"?>
<!-- Generated by Pixelmator Pro 3.7 -->
<svg width="1500" height="1500" viewBox="0 0 1500 1500" xmlns="http://www.w3.org/2000/svg">
    <g id="boock"/>
    <g id="hart"/>
    <g id="BOOCKWHITE">
        <path id="Path" fill="#f2f0eb" stroke="none" visibility="hidden" d="M 0 0 L 1500 0 L 1500 1500 L 0 1500 Z"/>
        <g id="Group">
            <g id="g1">
                <path id="path1" fill="#0f1a2e" stroke="none" d="M 530.400024 857.700012 L 600.099976 1037.699951 C 603 1044.400024 606 1049.099976 609.200012 1051.800049 C 612.400024 1054.5 615.200012 1055.900024 617.700012 1056.099976 L 617.700012 1061.900024 C 611.599976 1061.5 604.200012 1061.300049 595.700012 1061.199951 C 587.200012 1061.099976 578.5 1061.099976 569.599976 1061.099976 C 560.400024 1061.099976 551.599976 1061.099976 543.400024 1061.199951 C 535.099976 1061.300049 528.5 1061.5 523.5 1061.900024 L 523.5 1056.099976 C 533.299988 1055.699951 539.5 1054 542.200012 1051.099976 C 544.900024 1048.099976 544.299988 1041.699951 540.5 1031.900024 L 492.700012 901.200012 L 498.5 892.599976 L 456.5 1001.200012 C 452.100006 1012.700012 449.399994 1022 448.399994 1029.099976 C 447.399994 1036.199951 447.899994 1041.699951 449.799988 1045.5 C 451.700012 1049.300049 454.700012 1052 458.899994 1053.599976 C 463 1055.099976 468 1056 473.700012 1056.199951 L 473.700012 1062 C 467 1061.599976 460.799988 1061.400024 455.100006 1061.300049 C 449.399994 1061.199951 443.299988 1061.199951 436.799988 1061.199951 C 433 1061.199951 429.100006 1061.199951 425.100006 1061.300049 C 421.200012 1061.400024 417.799988 1061.599976 414.899994 1062 L 414.899994 1056.199951 C 419.100006 1055.400024 423.399994 1052.699951 427.700012 1048.099976 C 432 1043.5 436.299988 1035.5 440.5 1024.199951 L 505.299988 857.700012 C 509.100006 858.099976 513.299988 858.299988 517.799988 858.299988 C 522.400024 858.299988 526.599976 858.099976 530.400024 857.700012 Z M 545.400024 979 L 545.400024 984.799988 L 459.600006 984.799988 L 462.5 979 L 545.400024 979 Z"/>
                <path id="path2" fill="#0f1a2e" stroke="none" d="M 685.099976 865.799988 L 685.099976 912.700012 L 716.200012 912.700012 L 716.200012 918.5 L 685.099976 918.5 L 685.099976 1036.300049 C 685.099976 1041.099976 686 1044.5 687.700012 1046.5 C 689.400024 1048.5 692 1049.5 695.5 1049.5 C 698.400024 1049.5 701.400024 1048.5 704.599976 1046.599976 C 707.799988 1044.699951 710.700012 1041.400024 713.400024 1036.800049 L 718 1039.699951 C 714.400024 1047.599976 709.299988 1053.900024 702.900024 1058.699951 C 696.5 1063.5 688.099976 1065.900024 677.700012 1065.900024 C 671.400024 1065.900024 665.700012 1065.099976 660.900024 1063.5 C 656 1061.900024 651.900024 1059.400024 648.700012 1056.199951 C 644.5 1052 641.700012 1046.699951 640.5 1040.5 C 639.200012 1034.300049 638.599976 1026.099976 638.599976 1016.200012 L 638.599976 918.599976 L 615.599976 918.599976 L 615.599976 912.799988 L 638.599976 912.799988 L 638.599976 876.799988 C 647.599976 876.799988 655.900024 875.900024 663.5 874.200012 C 670.900024 872.400024 678.099976 869.599976 685.099976 865.799988 Z"/>
                <path id="path3" fill="#0f1a2e" stroke="none" d="M 786.400024 836.700012 L 786.400024 1035.099976 C 786.400024 1043.199951 787.700012 1048.599976 790.299988 1051.5 C 792.900024 1054.400024 797.400024 1055.800049 803.700012 1055.800049 L 803.700012 1061.800049 C 800.099976 1061.599976 794.5 1061.400024 787 1061.099976 C 779.5 1060.800049 771.799988 1060.699951 764 1060.699951 C 756.299988 1060.699951 748.5 1060.800049 740.5 1061.099976 C 732.5 1061.400024 726.5 1061.599976 722.5 1061.800049 L 722.5 1055.800049 C 728.799988 1055.800049 733.299988 1054.400024 735.900024 1051.5 C 738.5 1048.599976 739.799988 1043.099976 739.799988 1035.099976 L 739.799988 871 C 739.799988 862.599976 738.599976 856.299988 736.200012 852.099976 C 733.799988 848 729.200012 845.900024 722.5 845.900024 L 722.5 839.900024 C 728.599976 840.5 734.599976 840.799988 740.400024 840.799988 C 749.200012 840.799988 757.5 840.5 765.200012 839.799988 C 772.799988 839 779.900024 838 786.400024 836.700012 Z"/>
                <path id="path4" fill="#0f1a2e" stroke="none" d="M 855 1063.900024 C 846.200012 1063.900024 838.900024 1062.199951 833.099976 1058.900024 C 827.299988 1055.5 823.099976 1051.099976 820.400024 1045.5 C 817.700012 1039.900024 816.400024 1034 816.400024 1027.599976 C 816.400024 1019.5 818.299988 1012.900024 822 1007.700012 C 825.700012 1002.5 830.599976 998.299988 836.5 995.200012 C 842.400024 992 848.700012 989.400024 855.200012 987.299988 C 861.700012 985.200012 868 983.099976 873.900024 981.099976 C 879.799988 979.099976 884.599976 976.700012 888.299988 973.900024 C 891.900024 971.099976 893.799988 967.5 893.799988 963.099976 L 893.799988 939.200012 C 893.799988 935 893.200012 931 891.900024 927.200012 C 890.599976 923.5 888.400024 920.400024 885.299988 918 C 882.099976 915.599976 877.799988 914.400024 872.200012 914.400024 C 868.700012 914.400024 865.400024 914.900024 862.099976 915.799988 C 858.799988 916.799988 856 918.299988 853.5 920.400024 C 859.599976 922.5 864.200012 925.700012 867.200012 929.900024 C 870.200012 934.099976 871.700012 938.799988 871.700012 944 C 871.700012 951.099976 869.299988 956.700012 864.400024 960.799988 C 859.5 964.900024 853.700012 967 847 967 C 839.700012 967 834.099976 964.700012 830.200012 960.099976 C 826.299988 955.5 824.299988 949.900024 824.299988 943.400024 C 824.299988 937.599976 825.700012 932.799988 828.599976 928.900024 C 831.5 925 835.700012 921.400024 841.299988 918.099976 C 846.900024 914.799988 853.599976 912.400024 861.5 910.900024 C 869.400024 909.400024 877.700012 908.599976 886.599976 908.599976 C 895.599976 908.599976 903.900024 909.5 911.5 911.299988 C 919.099976 913.099976 925.599976 916.700012 930.900024 922.099976 C 935.099976 926.5 937.799988 931.900024 939 938.200012 C 940.200012 944.5 940.700012 952.599976 940.700012 962.400024 L 940.700012 1040.199951 C 940.700012 1045 941.099976 1048.300049 942 1050.099976 C 942.900024 1051.900024 944.299988 1052.800049 946.200012 1052.800049 C 947.900024 1052.800049 949.599976 1052.300049 951.099976 1051.400024 C 952.599976 1050.400024 954.200012 1049.400024 955.700012 1048.199951 L 958.900024 1053.099976 C 954.700012 1056.599976 949.700012 1059.199951 943.900024 1061 C 938.099976 1062.800049 931.900024 1063.699951 925.200012 1063.699951 C 917.5 1063.699951 911.5 1062.699951 907.200012 1060.699951 C 902.900024 1058.699951 899.799988 1055.900024 898 1052.5 C 896.200012 1049 895.200012 1045.199951 895 1041 C 890.799988 1047.900024 885.5 1053.400024 879.200012 1057.599976 C 872.5 1061.900024 864.599976 1063.900024 855 1063.900024 Z M 878.900024 1043.199951 C 882 1043.199951 884.700012 1042.599976 887.099976 1041.300049 C 889.5 1040.099976 891.799988 1037.900024 893.900024 1034.800049 L 893.900024 974.900024 C 892.400024 977.599976 890.299988 980.099976 887.700012 982.5 C 885.099976 984.900024 882.400024 987.299988 879.5 989.700012 C 876.599976 992.099976 873.900024 994.700012 871.299988 997.599976 C 868.700012 1000.5 866.599976 1003.900024 865 1007.799988 C 863.400024 1011.700012 862.599976 1016.5 862.599976 1022.099976 C 862.599976 1029.599976 864.099976 1035 867.200012 1038.199951 C 870.099976 1041.599976 874.099976 1043.199951 878.900024 1043.199951 Z"/>
                <path id="path5" fill="#0f1a2e" stroke="none" d="M 1025.199951 908.700012 C 1033.599976 908.700012 1040.900024 909.700012 1047.099976 911.599976 C 1053.199951 913.5 1057.800049 915.299988 1060.599976 917.099976 C 1067.300049 921.299988 1071.400024 918.599976 1072.699951 909 L 1078.699951 909 C 1078.300049 914.599976 1078 921.200012 1077.800049 929 C 1077.599976 936.799988 1077.5 947.200012 1077.5 960.200012 L 1071.5 960.200012 C 1070.699951 953.099976 1069.099976 946.099976 1066.5 939.200012 C 1063.900024 932.299988 1060.099976 926.599976 1055.099976 922.099976 C 1050.099976 917.599976 1043.599976 915.299988 1035.5 915.299988 C 1030.300049 915.299988 1025.900024 916.799988 1022.400024 919.900024 C 1018.799988 923 1017.099976 927.200012 1017.099976 932.599976 C 1017.099976 938.400024 1018.799988 943.400024 1022.299988 947.900024 C 1025.800049 952.299988 1030.199951 956.5 1035.699951 960.599976 C 1041.199951 964.599976 1046.699951 969 1052.300049 973.599976 C 1058.400024 978.200012 1064 982.900024 1068.900024 987.599976 C 1073.800049 992.299988 1077.699951 997.400024 1080.699951 1002.900024 C 1083.699951 1008.400024 1085.199951 1015 1085.199951 1022.599976 C 1085.199951 1031.199951 1082.599976 1038.800049 1077.400024 1045.400024 C 1072.199951 1051.900024 1065.400024 1057 1057 1060.699951 C 1048.5 1064.300049 1039.099976 1066.199951 1028.800049 1066.199951 C 1022.5 1066.199951 1016.900024 1065.599976 1012.200012 1064.300049 C 1007.5 1063 1003.599976 1061.5 1000.5 1059.5 C 997.599976 1058.199951 995.099976 1057 992.900024 1056 C 990.700012 1055 988.5 1054.400024 986.400024 1054 C 984.5 1053.800049 982.799988 1054.699951 981.5 1056.599976 C 980.200012 1058.5 979.099976 1061 978.299988 1064.099976 L 972.299988 1064.099976 C 972.700012 1058 973 1050.5 973.200012 1041.599976 C 973.400024 1032.800049 973.5 1021.099976 973.5 1006.5 L 979.5 1006.5 C 980.700012 1016.900024 982.799988 1026 986 1033.900024 C 989.200012 1041.800049 993.400024 1048 998.799988 1052.5 C 1004.200012 1057 1010.5 1059.300049 1017.799988 1059.300049 C 1021.099976 1059.300049 1024.099976 1058.699951 1026.900024 1057.400024 C 1029.699951 1056.199951 1032 1054.199951 1033.800049 1051.5 C 1035.599976 1048.800049 1036.5 1045.400024 1036.5 1041.099976 C 1036.5 1032.699951 1033.800049 1025.599976 1028.400024 1019.900024 C 1023 1014.200012 1016.400024 1008 1008.5 1001.299988 C 1002.400024 996.099976 996.599976 991 991.400024 986 C 986.099976 981 981.799988 975.5 978.400024 969.599976 C 975 963.700012 973.400024 956.900024 973.400024 949.400024 C 973.400024 940.799988 975.799988 933.400024 980.700012 927.400024 C 985.599976 921.400024 992 916.700012 999.900024 913.599976 C 1007.700012 910.299988 1016.099976 908.700012 1025.199951 908.700012 Z"/>
            </g>
            <g id="g2">
                <path id="path6" fill="#0f1a2e" stroke="none" d="M 559.799988 1127.800049 L 559.799988 1133.599976 C 554 1133.800049 549.599976 1134.5 546.599976 1135.800049 C 543.5 1137.099976 541.5 1139.400024 540.400024 1142.699951 C 539.299988 1146.099976 538.799988 1151.300049 538.799988 1158.400024 L 538.799988 1301.199951 C 538.799988 1308.099976 539.400024 1313.300049 540.5 1316.800049 C 541.700012 1320.300049 543.700012 1322.599976 546.700012 1323.699951 C 549.700012 1324.900024 554 1325.599976 559.799988 1326 L 559.799988 1331.800049 C 554.200012 1331.400024 547.099976 1331.199951 538.299988 1331.099976 C 529.599976 1331 520.700012 1331 511.700012 1331 C 501.899994 1331 492.700012 1331 484.200012 1331.099976 C 475.700012 1331.199951 468.700012 1331.400024 463.299988 1331.800049 L 463.299988 1326 C 469.799988 1325.599976 474.799988 1324.800049 478.100006 1323.699951 C 481.5 1322.5 483.700012 1320.199951 484.899994 1316.800049 C 486.100006 1313.300049 486.600006 1308.199951 486.600006 1301.199951 L 486.600006 1146.300049 L 489.200012 1146 L 417.200012 1331.800049 L 412.600006 1331.800049 L 333.100006 1146.599976 L 333.100006 1279.900024 C 333.100006 1291.599976 333.700012 1300.599976 334.799988 1306.800049 C 336 1313 338.5 1317.5 342.600006 1320.199951 C 346.600006 1322.900024 353 1324.800049 361.600006 1326 L 361.600006 1331.800049 C 358 1331.400024 353.100006 1331.199951 347.100006 1331.099976 C 341.100006 1331 335.299988 1331 330 1331 C 325.799988 1331 321.399994 1331 316.899994 1331.099976 C 312.399994 1331.199951 308.600006 1331.400024 305.5 1331.800049 L 305.5 1326 C 311.600006 1324.800049 316.200012 1323 319.200012 1320.400024 C 322.200012 1317.800049 324.100006 1313.699951 325.100006 1308 C 326.100006 1302.300049 326.5 1294.5 326.5 1284.5 L 326.5 1158.400024 C 326.5 1151.300049 326 1146.099976 325.100006 1142.699951 C 324.100006 1139.300049 322.100006 1137 319.100006 1135.800049 C 316 1134.599976 311.5 1133.800049 305.600006 1133.599976 L 305.600006 1127.800049 C 308.700012 1128 312.5 1128.199951 317 1128.400024 C 321.5 1128.599976 325.899994 1128.699951 330.100006 1128.699951 C 339.899994 1128.699951 349.299988 1128.599976 358.299988 1128.400024 C 367.299988 1128.199951 375.5 1128 382.799988 1127.800049 L 441.600006 1264.900024 L 433.5 1273 L 489.100006 1128.699951 C 492.700012 1128.699951 496.5 1128.699951 500.5 1128.699951 C 504.399994 1128.699951 508.200012 1128.699951 511.899994 1128.699951 C 520.900024 1128.699951 529.799988 1128.599976 538.5 1128.400024 C 547.099976 1128.199951 554.200012 1128 559.799988 1127.800049 Z"/>
                <path id="path7" fill="#0f1a2e" stroke="none" d="M 645 1178.5 C 661.900024 1178.5 675.099976 1183.5 684.700012 1193.5 C 694.299988 1203.5 699.099976 1219.900024 699.099976 1242.699951 L 606.700012 1242.699951 L 606.400024 1237.199951 L 660 1237.199951 C 660.400024 1227.800049 660 1219.099976 658.799988 1211.099976 C 657.599976 1203.099976 655.799988 1196.699951 653.200012 1191.900024 C 650.599976 1187.099976 647.200012 1184.699951 643 1184.699951 C 637.200012 1184.699951 632.299988 1188.800049 628.299988 1197.099976 C 624.299988 1205.400024 621.799988 1219.400024 620.799988 1239.099976 L 622 1241.099976 C 621.599976 1243.199951 621.400024 1245.400024 621.400024 1247.599976 C 621.400024 1249.800049 621.400024 1252.199951 621.400024 1254.699951 C 621.400024 1267.900024 623.200012 1278.5 626.700012 1286.400024 C 630.299988 1294.300049 634.700012 1299.800049 640.099976 1303.099976 C 645.5 1306.400024 651 1308 656.799988 1308 C 660.099976 1308 663.700012 1307.5 667.700012 1306.599976 C 671.700012 1305.599976 676 1303.599976 680.400024 1300.599976 C 684.799988 1297.5 689 1293 693.099976 1287.099976 L 698 1288.800049 C 695.900024 1296.300049 692.299988 1303.599976 687.200012 1310.800049 C 682.099976 1318 675.599976 1324 667.799988 1328.699951 C 659.900024 1333.400024 650.400024 1335.800049 639.299988 1335.800049 C 626.599976 1335.800049 615.299988 1333.199951 605.299988 1327.900024 C 595.299988 1322.599976 587.400024 1314.300049 581.5 1302.800049 C 575.599976 1291.400024 572.700012 1276.400024 572.700012 1258 C 572.700012 1239.800049 575.900024 1224.800049 582.200012 1213.099976 C 588.5 1201.400024 597.200012 1192.699951 608.099976 1187 C 619.099976 1181.400024 631.400024 1178.5 645 1178.5 Z"/>
                <path id="path8" fill="#0f1a2e" stroke="none" d="M 814.400024 1178.5 C 820.900024 1178.5 826.099976 1179.900024 830 1182.699951 C 833.799988 1185.5 836.599976 1189 838.400024 1193.400024 C 840.099976 1197.699951 841 1202 841 1206.199951 C 841 1214.099976 838.700012 1220.400024 834.200012 1225.199951 C 829.700012 1230 823.799988 1232.400024 816.5 1232.400024 C 808.799988 1232.400024 803 1230.599976 798.900024 1227.099976 C 794.900024 1223.599976 792.900024 1218.800049 792.900024 1212.800049 C 792.900024 1206.900024 794.200012 1202 796.799988 1198.099976 C 799.400024 1194.300049 802.599976 1191 806.400024 1188.300049 C 803.5 1187.900024 800.700012 1188.300049 798 1189.5 C 794.900024 1190.300049 792 1191.699951 789.400024 1193.800049 C 786.700012 1195.900024 784.400024 1198.400024 782.5 1201.300049 C 780.599976 1204.199951 779.099976 1207.300049 778 1210.699951 C 776.900024 1214.099976 776.400024 1217.5 776.400024 1220.900024 L 776.400024 1302.099976 C 776.400024 1311.300049 778.5 1317.599976 782.599976 1320.800049 C 786.700012 1324.099976 793.299988 1325.699951 802.299988 1325.699951 L 802.299988 1331.699951 C 797.900024 1331.5 791.400024 1331.300049 782.700012 1331 C 774 1330.699951 765.099976 1330.599976 755.900024 1330.599976 C 747.599976 1330.599976 739.299988 1330.699951 731 1331 C 722.599976 1331.300049 716.5 1331.5 712.400024 1331.699951 L 712.400024 1325.699951 C 718.700012 1325.699951 723.200012 1324.300049 725.799988 1321.400024 C 728.400024 1318.5 729.700012 1313 729.700012 1305 L 729.700012 1214 C 729.700012 1205.400024 728.400024 1199 726 1194.800049 C 723.5 1190.699951 719 1188.599976 712.5 1188.599976 L 712.5 1182.599976 C 718.599976 1183.199951 724.599976 1183.5 730.400024 1183.5 C 739 1183.5 747.200012 1183.199951 755 1182.5 C 762.799988 1181.800049 769.900024 1180.800049 776.5 1179.5 L 776.5 1203.099976 C 778.799988 1198.099976 781.799988 1193.800049 785.599976 1190.099976 C 789.299988 1186.5 793.700012 1183.599976 798.599976 1181.599976 C 803.299988 1179.5 808.599976 1178.5 814.400024 1178.5 Z"/>
                <path id="path9" fill="#0f1a2e" stroke="none" d="M 903.599976 1106.5 L 903.599976 1304.900024 C 903.599976 1313 904.900024 1318.400024 907.5 1321.300049 C 910.099976 1324.199951 914.599976 1325.599976 920.900024 1325.599976 L 920.900024 1331.599976 C 917.299988 1331.400024 911.700012 1331.199951 904.200012 1330.900024 C 896.700012 1330.599976 889 1330.5 881.200012 1330.5 C 873.5 1330.5 865.700012 1330.599976 857.700012 1330.900024 C 849.700012 1331.199951 843.700012 1331.400024 839.700012 1331.599976 L 839.700012 1325.599976 C 846 1325.599976 850.5 1324.199951 853.099976 1321.300049 C 855.700012 1318.400024 857 1312.900024 857 1304.900024 L 857 1140.699951 C 857 1132.300049 855.799988 1126 853.400024 1121.800049 C 851 1117.699951 846.400024 1115.599976 839.700012 1115.599976 L 839.700012 1109.599976 C 845.799988 1110.199951 851.799988 1110.5 857.599976 1110.5 C 866.400024 1110.5 874.700012 1110.199951 882.400024 1109.5 C 890 1108.900024 897.099976 1107.900024 903.599976 1106.5 Z"/>
                <path id="path10" fill="#0f1a2e" stroke="none" d="M 997 1179.400024 L 997 1305 C 997 1313.099976 998.299988 1318.5 1000.900024 1321.400024 C 1003.5 1324.300049 1008 1325.699951 1014.299988 1325.699951 L 1014.299988 1331.699951 C 1010.5 1331.5 1004.799988 1331.300049 997.299988 1331 C 989.799988 1330.699951 982.200012 1330.599976 974.5 1330.599976 C 966.799988 1330.599976 959 1330.699951 951 1331 C 943 1331.300049 937 1331.5 933 1331.699951 L 933 1325.699951 C 939.299988 1325.699951 943.799988 1324.300049 946.400024 1321.400024 C 949 1318.5 950.299988 1313 950.299988 1305 L 950.299988 1214 C 950.299988 1205.400024 949 1199 946.599976 1194.800049 C 944.099976 1190.699951 939.599976 1188.599976 933.099976 1188.599976 L 933.099976 1182.599976 C 939.200012 1183.199951 945.200012 1183.5 951 1183.5 C 959.599976 1183.5 967.799988 1183.199951 975.599976 1182.5 C 983.299988 1181.699951 990.400024 1180.699951 997 1179.400024 Z M 971.599976 1107.400024 C 980.599976 1107.400024 987.700012 1109.400024 992.799988 1113.400024 C 997.900024 1117.400024 1000.400024 1123.300049 1000.400024 1131 C 1000.400024 1138.699951 997.900024 1144.5 992.799988 1148.599976 C 987.700012 1152.599976 980.700012 1154.599976 971.599976 1154.599976 C 962.599976 1154.599976 955.5 1152.599976 950.400024 1148.599976 C 945.299988 1144.599976 942.799988 1138.699951 942.799988 1131 C 942.799988 1123.300049 945.299988 1117.5 950.400024 1113.400024 C 955.5 1109.400024 962.599976 1107.400024 971.599976 1107.400024 Z"/>
                <path id="path11" fill="#0f1a2e" stroke="none" d="M 1136.300049 1178.5 C 1144.699951 1178.5 1151.5 1179.599976 1156.599976 1181.699951 C 1161.699951 1183.800049 1165.599976 1186.5 1168.300049 1189.800049 C 1171.400024 1193.5 1173.599976 1198.199951 1175.099976 1203.900024 C 1176.5 1209.699951 1177.300049 1217.400024 1177.300049 1227.199951 L 1177.300049 1305 C 1177.300049 1313.099976 1178.599976 1318.5 1181.199951 1321.400024 C 1183.800049 1324.300049 1188.300049 1325.699951 1194.599976 1325.699951 L 1194.599976 1331.699951 C 1190.800049 1331.5 1185 1331.300049 1177.5 1331 C 1169.900024 1330.699951 1162.599976 1330.599976 1155.5 1330.599976 C 1147.599976 1330.599976 1140 1330.699951 1132.699951 1331 C 1125.400024 1331.300049 1119.900024 1331.5 1116.300049 1331.699951 L 1116.300049 1325.699951 C 1121.699951 1325.699951 1125.400024 1324.300049 1127.5 1321.400024 C 1129.599976 1318.5 1130.699951 1313 1130.699951 1305 L 1130.699951 1213.400024 C 1130.699951 1209 1130.199951 1205.199951 1129.300049 1202 C 1128.300049 1198.800049 1126.699951 1196.400024 1124.400024 1194.800049 C 1122.099976 1193.199951 1118.800049 1192.400024 1114.599976 1192.400024 C 1110.199951 1192.400024 1106.099976 1193.599976 1102.400024 1195.900024 C 1098.699951 1198.199951 1095.699951 1201.400024 1093.5 1205.5 C 1091.300049 1209.599976 1090.199951 1214.300049 1090.199951 1219.5 L 1090.199951 1305 C 1090.199951 1313.099976 1091.300049 1318.5 1093.400024 1321.400024 C 1095.5 1324.300049 1099.300049 1325.699951 1104.599976 1325.699951 L 1104.599976 1331.699951 C 1101 1331.5 1095.699951 1331.300049 1088.800049 1331 C 1081.900024 1330.699951 1074.900024 1330.599976 1067.800049 1330.599976 C 1059.900024 1330.599976 1052.099976 1330.699951 1044.199951 1331 C 1036.300049 1331.300049 1030.400024 1331.5 1026.300049 1331.699951 L 1026.300049 1325.699951 C 1032.599976 1325.699951 1037.099976 1324.300049 1039.699951 1321.400024 C 1042.300049 1318.5 1043.599976 1313 1043.599976 1305 L 1043.599976 1214 C 1043.599976 1205.400024 1042.300049 1199 1039.900024 1194.800049 C 1037.400024 1190.699951 1032.900024 1188.599976 1026.400024 1188.599976 L 1026.400024 1182.599976 C 1032.5 1183.199951 1038.5 1183.5 1044.300049 1183.5 C 1052.900024 1183.5 1061.099976 1183.199951 1068.900024 1182.5 C 1076.699951 1181.800049 1083.800049 1180.800049 1090.400024 1179.5 L 1090.400024 1202.800049 C 1095 1194 1101.300049 1187.699951 1109.300049 1184.099976 C 1116.800049 1180.300049 1126 1178.5 1136.300049 1178.5 Z"/>
            </g>
            <g id="g3">
                <path id="path12" fill="#0f1a2e" stroke="none" d="M 1044.699951 459 C 1044.699951 621.758301 912.758301 753.700012 750 753.700012 C 587.241699 753.700012 455.299988 621.758301 455.299988 459 C 455.299988 296.241699 587.241699 164.300049 750 164.300049 C 912.758301 164.300049 1044.699951 296.241699 1044.699951 459 Z"/>
                <path id="path13" fill="#d4873f" stroke="none" d="M 733.493652 550.388184 L 843.376953 440.504883 L 953.260315 550.388184 L 843.376953 660.271484 Z"/>
            </g>
        </g>
    </g>
    <g id="HARTWHITE"/>
</svg>
