<?xml version="1.0" encoding="UTF-8"?>
<!-- Generated by Pixelmator Pro 3.7 -->
<svg width="1500" height="400" viewBox="0 0 1500 400" xmlns="http://www.w3.org/2000/svg">
    <g id="boock"/>
    <g id="hart"/>
    <g id="BOOCKWHITE">
        <path id="Path" fill="#0f1a2e" stroke="none" visibility="hidden" d="M 0 -550 L 1500 -550 L 1500 950 L 0 950 Z"/>
        <g id="Group">
            <g id="g1">
                <path id="path1" fill="#f2f0eb" stroke="none" d="M 486.600006 140.599976 L 530.799988 254.799988 C 532.599976 259.099976 534.5 262 536.599976 263.799988 C 538.599976 265.5 540.400024 266.400024 542 266.5 L 542 270.200012 C 538.099976 270 533.400024 269.799988 528 269.700012 C 522.599976 269.599976 517.099976 269.599976 511.5 269.599976 C 505.700012 269.599976 500.100006 269.599976 494.899994 269.700012 C 489.700012 269.799988 485.5 269.900024 482.299988 270.200012 L 482.299988 266.5 C 488.5 266.299988 492.5 265.200012 494.200012 263.299988 C 495.899994 261.400024 495.5 257.400024 493.100006 251.200012 L 462.799988 168.299988 L 466.5 162.799988 L 439.799988 231.700012 C 437 239 435.299988 244.900024 434.700012 249.400024 C 434.100006 253.900024 434.399994 257.400024 435.600006 259.799988 C 436.799988 262.200012 438.700012 263.900024 441.399994 264.900024 C 444 265.900024 447.200012 266.400024 450.799988 266.5 L 450.799988 270.200012 C 446.5 270 442.600006 269.799988 439 269.700012 C 435.399994 269.599976 431.5 269.599976 427.399994 269.599976 C 425 269.599976 422.5 269.599976 420 269.700012 C 417.5 269.799988 415.299988 269.900024 413.5 270.200012 L 413.5 266.5 C 416.200012 266 418.899994 264.299988 421.600006 261.400024 C 424.299988 258.5 427 253.400024 429.700012 246.200012 L 470.799988 140.599976 C 473.200012 140.799988 475.899994 141 478.700012 141 C 481.5 141 484.100006 140.900024 486.600006 140.599976 Z M 496.100006 217.5 L 496.100006 221.200012 L 441.700012 221.200012 L 443.5 217.5 L 496.100006 217.5 Z"/>
                <path id="path2" fill="#f2f0eb" stroke="none" d="M 584.700012 145.700012 L 584.700012 175.5 L 604.400024 175.5 L 604.400024 179.200012 L 584.700012 179.200012 L 584.700012 253.900024 C 584.700012 256.900024 585.200012 259.099976 586.299988 260.400024 C 587.400024 261.700012 589 262.299988 591.200012 262.299988 C 593 262.299988 594.900024 261.700012 597 260.5 C 599 259.299988 600.900024 257.200012 602.599976 254.299988 L 605.5 256.099976 C 603.200012 261.099976 600 265.099976 595.900024 268.200012 C 591.799988 271.200012 586.5 272.799988 579.900024 272.799988 C 575.900024 272.799988 572.299988 272.299988 569.200012 271.200012 C 566.099976 270.200012 563.5 268.599976 561.400024 266.5 C 558.700012 263.799988 557 260.5 556.200012 256.5 C 555.400024 252.5 555 247.400024 555 241.099976 L 555 179.200012 L 540.400024 179.200012 L 540.400024 175.5 L 555 175.5 L 555 152.700012 C 560.700012 152.700012 566 152.200012 570.799988 151.099976 C 575.700012 149.900024 580.299988 148.200012 584.700012 145.700012 Z"/>
                <path id="path3" fill="#f2f0eb" stroke="none" d="M 649 127.299988 L 649 253.200012 C 649 258.299988 649.799988 261.799988 651.5 263.599976 C 653.099976 265.400024 656 266.299988 660 266.299988 L 660 270.099976 C 657.700012 270 654.200012 269.799988 649.400024 269.599976 C 644.599976 269.400024 639.799988 269.299988 634.799988 269.299988 C 629.900024 269.299988 625 269.400024 619.900024 269.599976 C 614.799988 269.799988 611 269.900024 608.5 270.099976 L 608.5 266.299988 C 612.5 266.299988 615.400024 265.400024 617 263.599976 C 618.599976 261.799988 619.5 258.299988 619.5 253.200012 L 619.5 149 C 619.5 143.599976 618.700012 139.700012 617.200012 137 C 615.700012 134.400024 612.799988 133.099976 608.5 133.099976 L 608.5 129.299988 C 612.400024 129.700012 616.200012 129.799988 619.799988 129.799988 C 625.400024 129.799988 630.599976 129.599976 635.5 129.200012 C 640.299988 128.799988 644.799988 128.099976 649 127.299988 Z"/>
                <path id="path4" fill="#f2f0eb" stroke="none" d="M 692.5 271.400024 C 686.900024 271.400024 682.299988 270.299988 678.599976 268.200012 C 674.900024 266.099976 672.299988 263.200012 670.599976 259.700012 C 668.900024 256.200012 668 252.400024 668 248.400024 C 668 243.299988 669.200012 239.099976 671.599976 235.799988 C 674 232.5 677 229.900024 680.799988 227.900024 C 684.599976 225.900024 688.5 224.200012 692.700012 222.900024 C 696.799988 221.599976 700.799988 220.299988 704.599976 219 C 708.400024 217.700012 711.400024 216.200012 713.700012 214.400024 C 716 212.599976 717.200012 210.400024 717.200012 207.5 L 717.200012 192.299988 C 717.200012 189.599976 716.799988 187.099976 716 184.700012 C 715.200012 182.299988 713.799988 180.400024 711.799988 178.900024 C 709.799988 177.400024 707 176.599976 703.5 176.599976 C 701.299988 176.599976 699.200012 176.900024 697.099976 177.5 C 695 178.099976 693.200012 179.099976 691.599976 180.400024 C 695.5 181.700012 698.400024 183.799988 700.299988 186.400024 C 702.200012 189.099976 703.099976 192.099976 703.099976 195.400024 C 703.099976 199.900024 701.5 203.5 698.400024 206.099976 C 695.299988 208.700012 691.599976 210 687.299988 210 C 682.700012 210 679.099976 208.5 676.599976 205.599976 C 674.099976 202.700012 672.900024 199.099976 672.900024 195 C 672.900024 191.299988 673.799988 188.299988 675.599976 185.799988 C 677.400024 183.299988 680.099976 181 683.599976 178.900024 C 687.099976 176.799988 691.400024 175.299988 696.400024 174.299988 C 701.400024 173.299988 706.700012 172.799988 712.299988 172.799988 C 718 172.799988 723.299988 173.400024 728.099976 174.5 C 732.900024 175.700012 737 177.900024 740.400024 181.400024 C 743.099976 184.200012 744.799988 187.599976 745.5 191.599976 C 746.200012 195.599976 746.599976 200.700012 746.599976 206.900024 L 746.599976 256.200012 C 746.599976 259.200012 746.900024 261.299988 747.400024 262.5 C 747.900024 263.700012 748.799988 264.200012 750 264.200012 C 751.099976 264.200012 752.099976 263.900024 753.099976 263.299988 C 754.099976 262.700012 755 262 756 261.299988 L 758 264.400024 C 755.299988 266.599976 752.200012 268.299988 748.5 269.400024 C 744.799988 270.599976 740.900024 271.099976 736.599976 271.099976 C 731.700012 271.099976 727.900024 270.5 725.200012 269.200012 C 722.5 267.900024 720.5 266.200012 719.400024 264 C 718.200012 261.799988 717.599976 259.400024 717.5 256.700012 C 714.799988 261.099976 711.5 264.599976 707.5 267.200012 C 703.599976 270.099976 698.5 271.400024 692.5 271.400024 Z M 707.599976 258.299988 C 709.5 258.299988 711.299988 257.900024 712.799988 257.099976 C 714.299988 256.299988 715.799988 254.900024 717.099976 253 L 717.099976 215 C 716.099976 216.700012 714.799988 218.299988 713.200012 219.799988 C 711.599976 221.299988 709.799988 222.799988 708 224.400024 C 706.200012 225.900024 704.400024 227.599976 702.799988 229.400024 C 701.200012 231.200012 699.799988 233.400024 698.799988 235.900024 C 697.799988 238.400024 697.200012 241.400024 697.200012 244.900024 C 697.200012 249.700012 698.200012 253.099976 700.099976 255.099976 C 702.099976 257.200012 704.599976 258.299988 707.599976 258.299988 Z"/>
                <path id="path5" fill="#f2f0eb" stroke="none" d="M 800.400024 173 C 805.799988 173 810.400024 173.599976 814.299988 174.799988 C 818.200012 176 821.099976 177.200012 822.900024 178.299988 C 827.200012 181 829.700012 179.299988 830.599976 173.200012 L 834.400024 173.200012 C 834.200012 176.700012 834 181 833.900024 185.900024 C 833.799988 190.799988 833.700012 197.400024 833.700012 205.700012 L 829.900024 205.700012 C 829.400024 201.200012 828.299988 196.700012 826.700012 192.400024 C 825.099976 188 822.599976 184.400024 819.5 181.5 C 816.299988 178.599976 812.200012 177.200012 807.099976 177.200012 C 803.799988 177.200012 801 178.200012 798.799988 180.099976 C 796.5 182.099976 795.400024 184.700012 795.400024 188.099976 C 795.400024 191.799988 796.5 195 798.700012 197.799988 C 800.900024 200.599976 803.700012 203.299988 807.200012 205.799988 C 810.700012 208.400024 814.200012 211.099976 817.700012 214 C 821.599976 216.900024 825.099976 219.900024 828.200012 222.900024 C 831.299988 225.900024 833.799988 229.099976 835.700012 232.599976 C 837.599976 236.099976 838.5 240.200012 838.5 245.099976 C 838.5 250.599976 836.900024 255.400024 833.599976 259.5 C 830.299988 263.599976 826 266.900024 820.599976 269.200012 C 815.200012 271.5 809.299988 272.700012 802.700012 272.700012 C 798.700012 272.700012 795.200012 272.299988 792.200012 271.5 C 789.200012 270.700012 786.700012 269.700012 784.799988 268.5 C 783 267.599976 781.400024 266.900024 780 266.299988 C 778.599976 265.700012 777.200012 265.299988 775.900024 265 C 774.700012 264.900024 773.599976 265.400024 772.799988 266.599976 C 771.900024 267.799988 771.299988 269.400024 770.799988 271.400024 L 767 271.400024 C 767.200012 267.5 767.400024 262.799988 767.5 257.099976 C 767.599976 251.5 767.700012 244.099976 767.700012 234.799988 L 771.5 234.799988 C 772.200012 241.400024 773.599976 247.200012 775.599976 252.200012 C 777.599976 257.200012 780.299988 261.099976 783.700012 264 C 787.099976 266.900024 791.099976 268.299988 795.799988 268.299988 C 797.900024 268.299988 799.799988 267.900024 801.599976 267.099976 C 803.400024 266.299988 804.799988 265.099976 806 263.400024 C 807.200012 261.700012 807.700012 259.5 807.700012 256.799988 C 807.700012 251.400024 806 247 802.599976 243.400024 C 799.200012 239.799988 795 235.900024 790 231.599976 C 786.099976 228.299988 782.5 225.099976 779.099976 221.900024 C 775.700012 218.700012 773 215.299988 770.900024 211.5 C 768.799988 207.700012 767.700012 203.5 767.700012 198.700012 C 767.700012 193.200012 769.299988 188.599976 772.400024 184.700012 C 775.5 180.900024 779.599976 177.900024 784.5 175.900024 C 789.299988 174 794.700012 173 800.400024 173 Z"/>
                <path id="path6" fill="#f2f0eb" stroke="none" d="M 1053.300049 140.799988 L 1053.300049 144.5 C 1049.599976 144.599976 1046.800049 145.099976 1044.900024 145.900024 C 1043 146.700012 1041.599976 148.200012 1041 150.299988 C 1040.300049 152.400024 1040 155.799988 1040 160.299988 L 1040 250.900024 C 1040 255.299988 1040.400024 258.599976 1041.099976 260.799988 C 1041.800049 263 1043.099976 264.5 1045 265.200012 C 1046.900024 265.900024 1049.699951 266.400024 1053.300049 266.700012 L 1053.300049 270.400024 C 1049.800049 270.200012 1045.199951 270 1039.699951 269.900024 C 1034.199951 269.799988 1028.5 269.799988 1022.799988 269.799988 C 1016.599976 269.799988 1010.799988 269.799988 1005.400024 269.900024 C 1000 270 995.599976 270.099976 992.200012 270.400024 L 992.200012 266.700012 C 996.299988 266.5 999.5 266 1001.599976 265.200012 C 1003.700012 264.5 1005.200012 263 1005.900024 260.799988 C 1006.599976 258.599976 1007 255.299988 1007 250.900024 L 1007 152.599976 L 1008.599976 152.400024 L 962.900024 270.200012 L 960 270.200012 L 909.599976 152.700012 L 909.599976 237.299988 C 909.599976 244.700012 910 250.400024 910.700012 254.400024 C 911.400024 258.400024 913.099976 261.200012 915.599976 262.900024 C 918.200012 264.599976 922.200012 265.799988 927.700012 266.599976 L 927.700012 270.299988 C 925.400024 270.099976 922.299988 269.900024 918.5 269.799988 C 914.700012 269.700012 911 269.700012 907.599976 269.700012 C 904.900024 269.700012 902.099976 269.700012 899.299988 269.799988 C 896.400024 269.900024 894 270 892.099976 270.299988 L 892.099976 266.599976 C 896 265.900024 898.900024 264.700012 900.799988 263 C 902.700012 261.400024 903.900024 258.700012 904.5 255.099976 C 905.099976 251.5 905.400024 246.5 905.400024 240.200012 L 905.400024 160.200012 C 905.400024 155.700012 905.099976 152.400024 904.5 150.200012 C 903.900024 148.099976 902.599976 146.599976 900.700012 145.799988 C 898.700012 145 895.900024 144.599976 892.099976 144.400024 L 892.099976 140.700012 C 894 140.799988 896.5 140.900024 899.299988 141.099976 C 902.200012 141.200012 904.900024 141.299988 907.599976 141.299988 C 913.799988 141.299988 919.799988 141.200012 925.5 141.099976 C 931.200012 141 936.400024 140.900024 941 140.700012 L 978.299988 227.700012 L 973.200012 232.799988 L 1008.5 141.299988 C 1010.799988 141.299988 1013.200012 141.299988 1015.700012 141.299988 C 1018.200012 141.299988 1020.599976 141.299988 1022.900024 141.299988 C 1028.599976 141.299988 1034.300049 141.200012 1039.800049 141.099976 C 1045.199951 141.099976 1049.800049 140.900024 1053.300049 140.799988 Z"/>
                <path id="path7" fill="#f2f0eb" stroke="none" d="M 1107.400024 173 C 1118.099976 173 1126.5 176.200012 1132.599976 182.5 C 1138.699951 188.799988 1141.699951 199.200012 1141.699951 213.700012 L 1083.099976 213.700012 L 1082.900024 210.200012 L 1116.900024 210.200012 C 1117.099976 204.200012 1116.900024 198.700012 1116.199951 193.700012 C 1115.5 188.599976 1114.300049 184.599976 1112.599976 181.599976 C 1111 178.599976 1108.800049 177 1106.099976 177 C 1102.400024 177 1099.300049 179.599976 1096.800049 184.900024 C 1094.199951 190.099976 1092.699951 199 1092.099976 211.599976 L 1092.800049 212.900024 C 1092.599976 214.200012 1092.400024 215.599976 1092.400024 217 C 1092.400024 218.400024 1092.400024 219.900024 1092.400024 221.5 C 1092.400024 229.900024 1093.5 236.599976 1095.800049 241.599976 C 1098.099976 246.599976 1100.900024 250.099976 1104.300049 252.200012 C 1107.699951 254.299988 1111.199951 255.299988 1114.900024 255.299988 C 1117 255.299988 1119.300049 255 1121.800049 254.400024 C 1124.400024 253.799988 1127 252.5 1129.800049 250.599976 C 1132.599976 248.700012 1135.300049 245.799988 1137.800049 242 L 1140.900024 243.099976 C 1139.599976 247.799988 1137.300049 252.5 1134 257.099976 C 1130.800049 261.700012 1126.699951 265.400024 1121.699951 268.400024 C 1116.699951 271.400024 1110.699951 272.900024 1103.599976 272.900024 C 1095.599976 272.900024 1088.400024 271.200012 1082 267.900024 C 1075.699951 264.599976 1070.599976 259.299988 1066.900024 252 C 1063.199951 244.799988 1061.300049 235.299988 1061.300049 223.599976 C 1061.300049 212 1063.300049 202.5 1067.300049 195.099976 C 1071.300049 187.700012 1076.800049 182.200012 1083.699951 178.599976 C 1090.900024 174.799988 1098.699951 173 1107.400024 173 Z"/>
                <path id="path8" fill="#f2f0eb" stroke="none" d="M 1214.800049 173 C 1218.900024 173 1222.199951 173.900024 1224.699951 175.599976 C 1227.099976 177.400024 1228.900024 179.599976 1230 182.400024 C 1231.099976 185.099976 1231.599976 187.900024 1231.599976 190.5 C 1231.599976 195.5 1230.199951 199.5 1227.300049 202.599976 C 1224.400024 205.599976 1220.699951 207.200012 1216.099976 207.200012 C 1211.199951 207.200012 1207.5 206.099976 1205 203.799988 C 1202.400024 201.5 1201.199951 198.5 1201.199951 194.799988 C 1201.199951 191 1202 187.900024 1203.699951 185.5 C 1205.300049 183.099976 1207.400024 181 1209.800049 179.299988 C 1208 179.099976 1206.199951 179.299988 1204.5 180 C 1202.599976 180.5 1200.699951 181.400024 1199 182.700012 C 1197.300049 184 1195.800049 185.599976 1194.599976 187.400024 C 1193.400024 189.200012 1192.400024 191.200012 1191.800049 193.299988 C 1191.099976 195.400024 1190.800049 197.599976 1190.800049 199.799988 L 1190.800049 251.299988 C 1190.800049 257.099976 1192.099976 261.099976 1194.699951 263.200012 C 1197.300049 265.299988 1201.5 266.299988 1207.199951 266.299988 L 1207.199951 270.099976 C 1204.400024 270 1200.300049 269.799988 1194.800049 269.599976 C 1189.300049 269.400024 1183.699951 269.299988 1177.800049 269.299988 C 1172.599976 269.299988 1167.300049 269.400024 1162 269.599976 C 1156.699951 269.799988 1152.800049 269.900024 1150.199951 270.099976 L 1150.199951 266.299988 C 1154.199951 266.299988 1157.099976 265.400024 1158.699951 263.599976 C 1160.300049 261.799988 1161.199951 258.299988 1161.199951 253.200012 L 1161.199951 195.5 C 1161.199951 190 1160.400024 186 1158.800049 183.400024 C 1157.199951 180.799988 1154.400024 179.5 1150.199951 179.5 L 1150.199951 175.700012 C 1154.099976 176.099976 1157.900024 176.200012 1161.5 176.200012 C 1167 176.200012 1172.199951 176 1177.099976 175.599976 C 1182 175.200012 1186.599976 174.5 1190.699951 173.700012 L 1190.699951 188.700012 C 1192.199951 185.5 1194.099976 182.799988 1196.5 180.5 C 1198.900024 178.200012 1201.599976 176.400024 1204.699951 175.099976 C 1207.800049 173.599976 1211.099976 173 1214.800049 173 Z"/>
                <path id="path9" fill="#f2f0eb" stroke="none" d="M 1271.400024 127.299988 L 1271.400024 253.200012 C 1271.400024 258.299988 1272.199951 261.799988 1273.900024 263.599976 C 1275.5 265.400024 1278.400024 266.299988 1282.400024 266.299988 L 1282.400024 270.099976 C 1280.099976 270 1276.599976 269.799988 1271.800049 269.599976 C 1267 269.400024 1262.199951 269.299988 1257.199951 269.299988 C 1252.300049 269.299988 1247.400024 269.400024 1242.300049 269.599976 C 1237.199951 269.799988 1233.400024 269.900024 1230.900024 270.099976 L 1230.900024 266.299988 C 1234.900024 266.299988 1237.800049 265.400024 1239.400024 263.599976 C 1241 261.799988 1241.900024 258.299988 1241.900024 253.200012 L 1241.900024 149 C 1241.900024 143.599976 1241.099976 139.700012 1239.599976 137 C 1238.099976 134.400024 1235.199951 133.099976 1230.900024 133.099976 L 1230.900024 129.299988 C 1234.800049 129.700012 1238.599976 129.799988 1242.199951 129.799988 C 1247.800049 129.799988 1253 129.599976 1257.900024 129.200012 C 1262.800049 128.799988 1267.300049 128.099976 1271.400024 127.299988 Z"/>
                <path id="path10" fill="#f2f0eb" stroke="none" d="M 1330.599976 173.5 L 1330.599976 253.200012 C 1330.599976 258.299988 1331.400024 261.799988 1333.099976 263.599976 C 1334.699951 265.400024 1337.599976 266.299988 1341.599976 266.299988 L 1341.599976 270.099976 C 1339.199951 270 1335.599976 269.799988 1330.800049 269.599976 C 1326.099976 269.400024 1321.199951 269.299988 1316.400024 269.299988 C 1311.5 269.299988 1306.599976 269.400024 1301.5 269.599976 C 1296.400024 269.799988 1292.599976 269.900024 1290.099976 270.099976 L 1290.099976 266.299988 C 1294.099976 266.299988 1297 265.400024 1298.599976 263.599976 C 1300.199951 261.799988 1301.099976 258.299988 1301.099976 253.200012 L 1301.099976 195.5 C 1301.099976 190 1300.300049 186 1298.699951 183.400024 C 1297.099976 180.799988 1294.300049 179.5 1290.099976 179.5 L 1290.099976 175.700012 C 1294 176.099976 1297.800049 176.200012 1301.400024 176.200012 C 1306.900024 176.200012 1312.099976 176 1317 175.599976 C 1322 175 1326.5 174.400024 1330.599976 173.5 Z M 1314.599976 127.799988 C 1320.300049 127.799988 1324.800049 129.099976 1328 131.599976 C 1331.199951 134.200012 1332.800049 137.900024 1332.800049 142.700012 C 1332.800049 147.599976 1331.199951 151.299988 1328 153.799988 C 1324.800049 156.400024 1320.300049 157.599976 1314.599976 157.599976 C 1308.900024 157.599976 1304.400024 156.299988 1301.199951 153.799988 C 1298 151.200012 1296.400024 147.5 1296.400024 142.700012 C 1296.400024 137.799988 1298 134.099976 1301.199951 131.599976 C 1304.400024 129.099976 1308.800049 127.799988 1314.599976 127.799988 Z"/>
                <path id="path11" fill="#f2f0eb" stroke="none" d="M 1419.099976 173 C 1424.5 173 1428.800049 173.700012 1432 175 C 1435.199951 176.299988 1437.699951 178 1439.400024 180.099976 C 1441.300049 182.400024 1442.800049 185.400024 1443.699951 189.099976 C 1444.599976 192.799988 1445.099976 197.700012 1445.099976 203.900024 L 1445.099976 253.200012 C 1445.099976 258.299988 1445.900024 261.799988 1447.599976 263.599976 C 1449.199951 265.400024 1452.099976 266.299988 1456.099976 266.299988 L 1456.099976 270.099976 C 1453.699951 270 1450 269.799988 1445.199951 269.599976 C 1440.400024 269.400024 1435.699951 269.299988 1431.199951 269.299988 C 1426.199951 269.299988 1421.400024 269.400024 1416.800049 269.599976 C 1412.199951 269.799988 1408.699951 269.900024 1406.400024 270.099976 L 1406.400024 266.299988 C 1409.800049 266.299988 1412.199951 265.400024 1413.5 263.599976 C 1414.800049 261.799988 1415.5 258.299988 1415.5 253.200012 L 1415.5 195.099976 C 1415.5 192.299988 1415.199951 189.900024 1414.599976 187.900024 C 1414 185.900024 1413 184.400024 1411.5 183.299988 C 1410 182.299988 1408 181.700012 1405.300049 181.700012 C 1402.5 181.700012 1399.900024 182.400024 1397.5 183.900024 C 1395.099976 185.400024 1393.199951 187.400024 1391.800049 190 C 1390.400024 192.599976 1389.699951 195.599976 1389.699951 198.900024 L 1389.699951 253.200012 C 1389.699951 258.299988 1390.400024 261.799988 1391.699951 263.599976 C 1393 265.400024 1395.400024 266.299988 1398.800049 266.299988 L 1398.800049 270.099976 C 1396.5 270 1393.099976 269.799988 1388.800049 269.599976 C 1384.400024 269.400024 1380 269.299988 1375.5 269.299988 C 1370.5 269.299988 1365.5 269.400024 1360.5 269.599976 C 1355.5 269.799988 1351.699951 269.900024 1349.199951 270.099976 L 1349.199951 266.299988 C 1353.199951 266.299988 1356.099976 265.400024 1357.699951 263.599976 C 1359.300049 261.799988 1360.199951 258.299988 1360.199951 253.200012 L 1360.199951 195.5 C 1360.199951 190 1359.400024 186 1357.800049 183.400024 C 1356.199951 180.799988 1353.400024 179.5 1349.199951 179.5 L 1349.199951 175.700012 C 1353.099976 176.099976 1356.900024 176.200012 1360.5 176.200012 C 1366 176.200012 1371.199951 176 1376.099976 175.599976 C 1381 175.200012 1385.599976 174.5 1389.699951 173.700012 L 1389.699951 188.5 C 1392.599976 182.900024 1396.599976 178.900024 1401.699951 176.599976 C 1406.699951 174.099976 1412.5 173 1419.099976 173 Z"/>
            </g>
            <g id="g2">
                <path id="path12" fill="#f2f0eb" stroke="none" d="M 353.600006 200 C 353.600006 285.493652 284.293671 354.799988 198.800003 354.799988 C 113.30632 354.799988 44 285.493652 44 200 C 44 114.506348 113.30632 45.200012 198.800003 45.200012 C 284.293671 45.200012 353.600006 114.506348 353.600006 200 Z"/>
                <path id="path13" fill="#da9048" stroke="none" d="M 190.168045 247.996704 L 247.867401 190.297363 L 305.566742 247.996704 L 247.867386 305.696045 Z"/>
            </g>
        </g>
    </g>
    <g id="HARTWHITE"/>
</svg>
