<?xml version="1.0" encoding="UTF-8"?>
<!-- Generated by Pixelmator Pro 3.7 -->
<svg width="1500" height="1500" viewBox="0 0 1500 1500" xmlns="http://www.w3.org/2000/svg">
    <g id="boock"/>
    <g id="hart"/>
    <g id="HARTWHITE">
        <g id="Group">
            <g id="g1">
                <path id="Path" fill="#f2f0eb" stroke="none" d="M 1044.699951 459 C 1044.699951 621.758301 912.758301 753.700012 750 753.700012 C 587.241699 753.700012 455.299988 621.758301 455.299988 459 C 455.299988 296.241699 587.241699 164.300049 750 164.300049 C 912.758301 164.300049 1044.699951 296.241699 1044.699951 459 Z"/>
                <path id="path1" fill="#da9048" stroke="none" d="M 733.493652 550.388184 L 843.376953 440.504883 L 953.260315 550.388184 L 843.376953 660.271484 Z"/>
            </g>
            <g id="g2">
                <path id="path2" fill="#f2f0eb" stroke="none" d="M 531.700012 1011.099976 L 437.299988 1011.099976 L 419.299988 1054.699951 L 371.100006 1054.699951 L 461.700012 851.5 L 508.200012 851.5 L 599.099976 1054.699951 L 549.700012 1054.699951 L 531.700012 1011.099976 Z M 516.900024 975.400024 L 484.700012 897.599976 L 452.5 975.400024 L 516.900024 975.400024 Z"/>
                <path id="path3" fill="#f2f0eb" stroke="none" d="M 710.5 1047.099976 C 701.200012 1053.800049 687.599976 1057 673.599976 1057 C 636.700012 1057 615.200012 1038.099976 615.200012 1001 L 615.200012 936.799988 L 591.099976 936.799988 L 591.099976 902 L 615.200012 902 L 615.200012 864 L 660.5 864 L 660.5 902 L 699.400024 902 L 699.400024 936.799988 L 660.5 936.799988 L 660.5 1000.400024 C 660.5 1013.799988 667.799988 1021 680 1021 C 686.700012 1021 693.400024 1019 698.299988 1015.200012 L 710.5 1047.099976 Z"/>
                <path id="path4" fill="#f2f0eb" stroke="none" d="M 736.099976 839.200012 L 781.400024 839.200012 L 781.400024 1054.599976 L 736.099976 1054.599976 L 736.099976 839.200012 Z"/>
                <path id="path5" fill="#f2f0eb" stroke="none" d="M 961.700012 965.5 L 961.700012 1054.599976 L 919.299988 1054.599976 L 919.299988 1035.099976 C 910.900024 1049.300049 894.599976 1056.900024 871.700012 1056.900024 C 835.099976 1056.900024 813.299988 1036.599976 813.299988 1009.599976 C 813.299988 982 832.799988 962.900024 880.400024 962.900024 L 916.400024 962.900024 C 916.400024 943.400024 904.799988 932.099976 880.400024 932.099976 C 863.900024 932.099976 846.700012 937.599976 835.400024 946.599976 L 819.099976 915 C 836.200012 902.799988 861.5 896.099976 886.5 896.099976 C 934.099976 896.099976 961.700012 918.200012 961.700012 965.5 Z M 916.400024 1005.299988 L 916.400024 989.299988 L 885.299988 989.299988 C 864.099976 989.299988 857.400024 997.099976 857.400024 1007.599976 C 857.400024 1018.900024 867 1026.5 882.900024 1026.5 C 898.099976 1026.5 911.099976 1019.5 916.400024 1005.299988 Z"/>
                <path id="path6" fill="#f2f0eb" stroke="none" d="M 987.5 1040.199951 L 1002.599976 1007.700012 C 1016.5 1016.700012 1037.699951 1022.799988 1056.900024 1022.799988 C 1077.800049 1022.799988 1085.599976 1017.299988 1085.599976 1008.599976 C 1085.599976 983.099976 991.200012 1009.200012 991.200012 946.799988 C 991.200012 917.200012 1017.900024 896.299988 1063.5 896.299988 C 1085 896.299988 1108.800049 901.200012 1123.599976 909.900024 L 1108.5 942.099976 C 1093.099976 933.400024 1077.699951 930.5 1063.5 930.5 C 1043.199951 930.5 1034.5 936.900024 1034.5 945 C 1034.5 971.700012 1128.900024 945.900024 1128.900024 1007.400024 C 1128.900024 1036.400024 1101.900024 1057 1055.199951 1057 C 1028.699951 1057 1002 1049.699951 987.5 1040.199951 Z"/>
            </g>
            <g id="g3">
                <path id="path7" fill="#f2f0eb" stroke="none" d="M 500.299988 1333.400024 L 500 1211.5 L 440.200012 1312 L 419 1312 L 359.5 1214.199951 L 359.5 1333.5 L 315.399994 1333.5 L 315.399994 1130.300049 L 354.299988 1130.300049 L 430.399994 1256.599976 L 505.299988 1130.300049 L 543.900024 1130.300049 L 544.5 1333.5 L 500.299988 1333.5 Z"/>
                <path id="path8" fill="#f2f0eb" stroke="none" d="M 735.799988 1268.099976 L 617.599976 1268.099976 C 622 1287.599976 638.5 1299.5 662.299988 1299.5 C 678.799988 1299.5 690.799988 1294.599976 701.5 1284.400024 L 725.599976 1310.5 C 711.099976 1327 689.299988 1335.800049 661.099976 1335.800049 C 607.099976 1335.800049 572 1301.800049 572 1255.400024 C 572 1208.699951 607.700012 1175 655.299988 1175 C 701.200012 1175 736.599976 1205.800049 736.599976 1256 C 736.599976 1259.400024 736.099976 1264.300049 735.799988 1268.099976 Z M 617 1241.699951 L 694 1241.699951 C 690.799988 1222 676 1209.199951 655.700012 1209.199951 C 635 1209.199951 620.200012 1221.699951 617 1241.699951 Z"/>
                <path id="path9" fill="#f2f0eb" stroke="none" d="M 858 1174.900024 L 858 1216.699951 C 854.200012 1216.400024 851.299988 1216.099976 847.799988 1216.099976 C 822.799988 1216.099976 806.299988 1229.699951 806.299988 1259.699951 L 806.299988 1333.400024 L 761 1333.400024 L 761 1177.199951 L 804.299988 1177.199951 L 804.299988 1197.800049 C 815.299988 1182.800049 833.900024 1174.900024 858 1174.900024 Z"/>
                <path id="path10" fill="#f2f0eb" stroke="none" d="M 885 1118 L 930.299988 1118 L 930.299988 1333.400024 L 885 1333.400024 L 885 1118 Z"/>
                <path id="path11" fill="#f2f0eb" stroke="none" d="M 949.400024 1130.199951 C 949.400024 1116 960.700012 1104.900024 977.599976 1104.900024 C 994.400024 1104.900024 1005.799988 1115.400024 1005.799988 1129.300049 C 1005.799988 1144.400024 994.5 1155.400024 977.599976 1155.400024 C 960.799988 1155.5 949.400024 1144.400024 949.400024 1130.199951 Z M 955 1177.199951 L 1000.299988 1177.199951 L 1000.299988 1333.400024 L 955 1333.400024 L 955 1177.199951 Z"/>
                <path id="path12" fill="#f2f0eb" stroke="none" d="M 1184.599976 1244 L 1184.599976 1333.400024 L 1139.300049 1333.400024 L 1139.300049 1251 C 1139.300049 1225.699951 1127.699951 1214.099976 1107.699951 1214.099976 C 1085.900024 1214.099976 1070.199951 1227.5 1070.199951 1256.199951 L 1070.199951 1333.400024 L 1024.900024 1333.400024 L 1024.900024 1177.199951 L 1068.199951 1177.199951 L 1068.199951 1195.5 C 1080.400024 1182.099976 1098.699951 1174.900024 1119.900024 1174.900024 C 1156.699951 1174.900024 1184.599976 1196.400024 1184.599976 1244 Z"/>
            </g>
        </g>
    </g>
</svg>
