<?xml version="1.0" encoding="UTF-8"?>
<!-- Generated by Pixelmator Pro 3.7 -->
<svg width="1500" height="416" viewBox="0 0 1500 416" xmlns="http://www.w3.org/2000/svg">
    <g id="boock"/>
    <g id="hart"/>
    <g id="HARTWHITE">
        <g id="Group">
            <g id="g1">
                <path id="Path" fill="#f2f0eb" stroke="none" d="M 356.5 208 C 356.5 293.493652 287.193665 362.799988 201.699997 362.799988 C 116.206322 362.799988 46.900002 293.493652 46.900002 208 C 46.900002 122.506348 116.206322 53.200012 201.699997 53.200012 C 287.193665 53.200012 356.5 122.506348 356.5 208 Z"/>
                <path id="path1" fill="#da9048" stroke="none" d="M 192.980118 256.026062 L 250.679474 198.32666 L 308.378815 256.026001 L 250.679459 313.725403 Z"/>
            </g>
            <g id="g2">
                <path id="path2" fill="#f2f0eb" stroke="none" d="M 511 253.299988 L 454.299988 253.299988 L 443.5 279.5 L 414.5 279.5 L 469 157.299988 L 496.899994 157.299988 L 551.5 279.400024 L 521.799988 279.400024 L 511 253.299988 Z M 502.100006 231.799988 L 482.700012 185.099976 L 463.299988 231.799988 L 502.100006 231.799988 Z"/>
                <path id="path3" fill="#f2f0eb" stroke="none" d="M 618.5 274.900024 C 612.900024 278.900024 604.700012 280.799988 596.299988 280.799988 C 574.099976 280.799988 561.200012 269.5 561.200012 247.099976 L 561.200012 208.5 L 546.700012 208.5 L 546.700012 187.599976 L 561.200012 187.599976 L 561.200012 164.700012 L 588.400024 164.700012 L 588.400024 187.599976 L 611.799988 187.599976 L 611.799988 208.5 L 588.400024 208.5 L 588.400024 246.700012 C 588.400024 254.700012 592.799988 259.099976 600.099976 259.099976 C 604.099976 259.099976 608.099976 257.900024 611.099976 255.599976 L 618.5 274.900024 Z"/>
                <path id="path4" fill="#f2f0eb" stroke="none" d="M 633.799988 150 L 661 150 L 661 279.400024 L 633.799988 279.400024 L 633.799988 150 Z"/>
                <path id="path5" fill="#f2f0eb" stroke="none" d="M 769.400024 225.900024 L 769.400024 279.5 L 743.900024 279.5 L 743.900024 267.799988 C 738.799988 276.299988 729.099976 280.900024 715.299988 280.900024 C 693.299988 280.900024 680.200012 268.700012 680.200012 252.5 C 680.200012 235.900024 691.900024 224.400024 720.5 224.400024 L 742.099976 224.400024 C 742.099976 212.700012 735.099976 205.900024 720.5 205.900024 C 710.599976 205.900024 700.299988 209.200012 693.5 214.599976 L 683.700012 195.599976 C 694 188.299988 709.200012 184.299988 724.200012 184.299988 C 752.799988 184.200012 769.400024 197.5 769.400024 225.900024 Z M 742.099976 249.799988 L 742.099976 240.200012 L 723.400024 240.200012 C 710.700012 240.200012 706.700012 244.900024 706.700012 251.200012 C 706.700012 258 712.5 262.5 722.099976 262.5 C 731.200012 262.5 739 258.299988 742.099976 249.799988 Z"/>
                <path id="path6" fill="#f2f0eb" stroke="none" d="M 784.900024 270.700012 L 794 251.200012 C 802.400024 256.599976 815.099976 260.299988 826.599976 260.299988 C 839.200012 260.299988 843.900024 257 843.900024 251.799988 C 843.900024 236.400024 787.200012 252.099976 787.200012 214.599976 C 787.200012 196.799988 803.200012 184.200012 830.599976 184.200012 C 843.5 184.200012 857.799988 187.200012 866.700012 192.400024 L 857.599976 211.799988 C 848.400024 206.599976 839.099976 204.799988 830.599976 204.799988 C 818.400024 204.799988 813.200012 208.599976 813.200012 213.5 C 813.200012 229.5 869.900024 214 869.900024 251 C 869.900024 268.400024 853.700012 280.799988 825.599976 280.799988 C 809.700012 280.799988 793.599976 276.5 784.900024 270.700012 Z"/>
                <path id="path7" fill="#f2f0eb" stroke="none" d="M 1042 279.400024 L 1041.800049 206.099976 L 1005.900024 266.5 L 993.200012 266.5 L 957.400024 207.700012 L 957.400024 279.400024 L 930.900024 279.400024 L 930.900024 157.299988 L 954.299988 157.299988 L 1000 233.200012 L 1045 157.299988 L 1068.199951 157.299988 L 1068.5 279.400024 L 1042 279.400024 Z"/>
                <path id="path8" fill="#f2f0eb" stroke="none" d="M 1183.5 240.200012 L 1112.5 240.200012 C 1115.099976 251.900024 1125.099976 259 1139.400024 259 C 1149.300049 259 1156.5 256 1162.900024 249.900024 L 1177.400024 265.599976 C 1168.699951 275.5 1155.599976 280.799988 1138.699951 280.799988 C 1106.300049 280.799988 1085.099976 260.400024 1085.099976 232.5 C 1085.099976 204.400024 1106.599976 184.200012 1135.199951 184.200012 C 1162.800049 184.200012 1184 202.700012 1184 232.900024 C 1184 235 1183.599976 237.900024 1183.5 240.200012 Z M 1112.099976 224.299988 L 1158.300049 224.299988 C 1156.400024 212.400024 1147.5 204.799988 1135.300049 204.799988 C 1122.900024 204.799988 1114 212.299988 1112.099976 224.299988 Z"/>
                <path id="path9" fill="#f2f0eb" stroke="none" d="M 1256.900024 184.200012 L 1256.900024 209.299988 C 1254.599976 209.099976 1252.900024 209 1250.800049 209 C 1235.800049 209 1225.900024 217.200012 1225.900024 235.200012 L 1225.900024 279.5 L 1198.699951 279.5 L 1198.699951 185.700012 L 1224.699951 185.700012 L 1224.699951 198 C 1231.199951 188.900024 1242.400024 184.200012 1256.900024 184.200012 Z"/>
                <path id="path10" fill="#f2f0eb" stroke="none" d="M 1273.099976 150 L 1300.300049 150 L 1300.300049 279.400024 L 1273.099976 279.400024 L 1273.099976 150 Z"/>
                <path id="path11" fill="#f2f0eb" stroke="none" d="M 1311.800049 157.299988 C 1311.800049 148.799988 1318.599976 142.099976 1328.699951 142.099976 C 1338.800049 142.099976 1345.599976 148.400024 1345.599976 156.799988 C 1345.599976 165.900024 1338.800049 172.5 1328.699951 172.5 C 1318.599976 172.5 1311.800049 165.900024 1311.800049 157.299988 Z M 1315.099976 185.599976 L 1342.300049 185.599976 L 1342.300049 279.400024 L 1315.099976 279.400024 L 1315.099976 185.599976 Z"/>
                <path id="path12" fill="#f2f0eb" stroke="none" d="M 1453.099976 225.700012 L 1453.099976 279.400024 L 1425.900024 279.400024 L 1425.900024 229.900024 C 1425.900024 214.700012 1418.900024 207.700012 1406.900024 207.700012 C 1393.800049 207.700012 1384.400024 215.700012 1384.400024 233 L 1384.400024 279.400024 L 1357.199951 279.400024 L 1357.199951 185.599976 L 1383.199951 185.599976 L 1383.199951 196.599976 C 1390.5 188.599976 1401.5 184.200012 1414.300049 184.200012 C 1436.400024 184.200012 1453.099976 197.099976 1453.099976 225.700012 Z"/>
            </g>
        </g>
    </g>
</svg>
